<svg width="19" height="19" viewBox="0 0 19 19" fill="none" xmlns="http://www.w3.org/2000/svg">
<path d="M15.4375 2.375H13.6562V1.78125C13.6562 1.62378 13.5937 1.47276 13.4823 1.36141C13.371 1.25006 13.22 1.1875 13.0625 1.1875C12.905 1.1875 12.754 1.25006 12.6427 1.36141C12.5313 1.47276 12.4688 1.62378 12.4688 1.78125V2.375H6.53125V1.78125C6.53125 1.62378 6.46869 1.47276 6.35734 1.36141C6.24599 1.25006 6.09497 1.1875 5.9375 1.1875C5.78003 1.1875 5.62901 1.25006 5.51766 1.36141C5.40631 1.47276 5.34375 1.62378 5.34375 1.78125V2.375H3.5625C3.24756 2.375 2.94551 2.50011 2.72281 2.72281C2.50011 2.94551 2.375 3.24756 2.375 3.5625V15.4375C2.375 15.7524 2.50011 16.0545 2.72281 16.2772C2.94551 16.4999 3.24756 16.625 3.5625 16.625H15.4375C15.7524 16.625 16.0545 16.4999 16.2772 16.2772C16.4999 16.0545 16.625 15.7524 16.625 15.4375V3.5625C16.625 3.24756 16.4999 2.94551 16.2772 2.72281C16.0545 2.50011 15.7524 2.375 15.4375 2.375ZM8.3125 13.6562C8.3125 13.8137 8.24994 13.9647 8.13859 14.0761C8.02725 14.1874 7.87622 14.25 7.71875 14.25C7.56128 14.25 7.41025 14.1874 7.29891 14.0761C7.18756 13.9647 7.125 13.8137 7.125 13.6562V9.86664L6.79695 10.0314C6.65602 10.1019 6.49286 10.1135 6.34337 10.0636C6.19388 10.0138 6.07031 9.90664 5.99984 9.7657C5.92937 9.62477 5.91778 9.46161 5.96761 9.31212C6.01744 9.16263 6.12461 9.03906 6.26555 8.96859L7.45305 8.37484C7.5436 8.32953 7.64424 8.30813 7.7454 8.31267C7.84656 8.31722 7.94488 8.34756 8.031 8.40081C8.11713 8.45407 8.18821 8.52846 8.23748 8.61693C8.28675 8.70539 8.31257 8.80499 8.3125 8.90625V13.6562ZM12.4688 13.0625C12.6262 13.0625 12.7772 13.1251 12.8886 13.2364C12.9999 13.3478 13.0625 13.4988 13.0625 13.6562C13.0625 13.8137 12.9999 13.9647 12.8886 14.0761C12.7772 14.1874 12.6262 14.25 12.4688 14.25H10.0938C9.98348 14.25 9.87539 14.2193 9.7816 14.1613C9.6878 14.1034 9.612 14.0204 9.56268 13.9218C9.51337 13.8232 9.4925 13.7127 9.5024 13.6029C9.5123 13.4931 9.55259 13.3882 9.61875 13.3L11.7548 10.4522C11.8034 10.3875 11.8382 10.3136 11.8572 10.235C11.8762 10.1563 11.8789 10.0747 11.8652 9.99494C11.8515 9.91521 11.8216 9.83913 11.7774 9.77136C11.7332 9.7036 11.6757 9.64557 11.6083 9.60085C11.5409 9.55613 11.465 9.52566 11.3854 9.5113C11.3058 9.49694 11.2241 9.49901 11.1453 9.51736C11.0665 9.53572 10.9923 9.56998 10.9272 9.61804C10.8622 9.66611 10.8076 9.72696 10.7669 9.79688C10.7291 9.86655 10.6777 9.92795 10.6157 9.97744C10.5538 10.0269 10.4825 10.0635 10.4062 10.085C10.3299 10.1065 10.2501 10.1125 10.1714 10.1027C10.0927 10.0928 10.0168 10.0673 9.94815 10.0277C9.87949 9.98802 9.81947 9.93502 9.77163 9.87179C9.72379 9.80856 9.6891 9.73639 9.66961 9.65953C9.65011 9.58268 9.64621 9.5027 9.65812 9.42431C9.67004 9.34592 9.69753 9.27071 9.73898 9.20312C9.93512 8.86371 10.2377 8.59848 10.5999 8.44854C10.9621 8.2986 11.3637 8.27233 11.7423 8.3738C12.121 8.47527 12.4556 8.69881 12.6942 9.00977C12.9329 9.32073 13.0624 9.70175 13.0625 10.0938C13.0638 10.481 12.9375 10.8579 12.7033 11.1662L11.2812 13.0625H12.4688ZM3.5625 5.9375V3.5625H5.34375V4.15625C5.34375 4.31372 5.40631 4.46474 5.51766 4.57609C5.62901 4.68744 5.78003 4.75 5.9375 4.75C6.09497 4.75 6.24599 4.68744 6.35734 4.57609C6.46869 4.46474 6.53125 4.31372 6.53125 4.15625V3.5625H12.4688V4.15625C12.4688 4.31372 12.5313 4.46474 12.6427 4.57609C12.754 4.68744 12.905 4.75 13.0625 4.75C13.22 4.75 13.371 4.68744 13.4823 4.57609C13.5937 4.46474 13.6562 4.31372 13.6562 4.15625V3.5625H15.4375V5.9375H3.5625Z" fill="#3E3D3A"/>
</svg>
