<svg width="19" height="19" viewBox="0 0 19 19" fill="none" xmlns="http://www.w3.org/2000/svg">
<path d="M12.4688 9.5C12.4688 10.0872 12.2946 10.6611 11.9684 11.1493C11.6422 11.6376 11.1786 12.0181 10.6361 12.2428C10.0936 12.4675 9.49671 12.5263 8.92083 12.4117C8.34494 12.2972 7.81596 12.0144 7.40078 11.5992C6.98559 11.184 6.70284 10.6551 6.58829 10.0792C6.47374 9.50329 6.53253 8.90638 6.75723 8.36391C6.98193 7.82144 7.36244 7.35779 7.85065 7.03157C8.33886 6.70536 8.91284 6.53125 9.5 6.53125C10.2874 6.53125 11.0425 6.84403 11.5992 7.40078C12.156 7.95753 12.4688 8.71264 12.4688 9.5ZM18.4062 4.75V14.25C18.4062 14.4075 18.3437 14.5585 18.2323 14.6698C18.121 14.7812 17.97 14.8438 17.8125 14.8438H1.1875C1.03003 14.8438 0.879005 14.7812 0.767655 14.6698C0.656306 14.5585 0.59375 14.4075 0.59375 14.25V4.75C0.59375 4.59253 0.656306 4.44151 0.767655 4.33016C0.879005 4.21881 1.03003 4.15625 1.1875 4.15625H17.8125C17.97 4.15625 18.121 4.21881 18.2323 4.33016C18.3437 4.44151 18.4062 4.59253 18.4062 4.75ZM17.2188 8.19004C16.5445 7.99069 15.9309 7.62583 15.4338 7.1287C14.9367 6.63156 14.5718 6.01795 14.3725 5.34375H4.62754C4.42819 6.01795 4.06333 6.63156 3.5662 7.1287C3.06906 7.62583 2.45545 7.99069 1.78125 8.19004V10.81C2.45545 11.0093 3.06906 11.3742 3.5662 11.8713C4.06333 12.3684 4.42819 12.982 4.62754 13.6562H14.3725C14.5718 12.982 14.9367 12.3684 15.4338 11.8713C15.9309 11.3742 16.5445 11.0093 17.2188 10.81V8.19004Z" fill="#3E3D3A"/>
</svg>
