<svg width="26" height="20" viewBox="0 0 26 20" fill="none" xmlns="http://www.w3.org/2000/svg">
<path d="M24 0H2C1.46957 0 0.960859 0.210714 0.585786 0.585786C0.210714 0.960859 0 1.46957 0 2V18C0 18.5304 0.210714 19.0391 0.585786 19.4142C0.960859 19.7893 1.46957 20 2 20H24C24.5304 20 25.0391 19.7893 25.4142 19.4142C25.7893 19.0391 26 18.5304 26 18V2C26 1.46957 25.7893 0.960859 25.4142 0.585786C25.0391 0.210714 24.5304 0 24 0ZM5 15C5 15.2652 4.89464 15.5196 4.70711 15.7071C4.51957 15.8946 4.26522 16 4 16C3.73478 16 3.48043 15.8946 3.29289 15.7071C3.10536 15.5196 3 15.2652 3 15V5C3 4.73478 3.10536 4.48043 3.29289 4.29289C3.48043 4.10536 3.73478 4 4 4C4.26522 4 4.51957 4.10536 4.70711 4.29289C4.89464 4.48043 5 4.73478 5 5V15ZM14.1625 10.0238L12.6175 10.5238L13.5725 11.8363C13.6497 11.9429 13.7052 12.0638 13.7357 12.1919C13.7662 12.3201 13.7712 12.453 13.7504 12.583C13.7296 12.7131 13.6833 12.8378 13.6143 12.95C13.5453 13.0621 13.4548 13.1596 13.3481 13.2369C13.2414 13.3141 13.1206 13.3696 12.9924 13.4001C12.8643 13.4306 12.7314 13.4356 12.6013 13.4148C12.4713 13.3939 12.3466 13.3477 12.2344 13.2787C12.1222 13.2096 12.0247 13.1192 11.9475 13.0125L11 11.7013L10.0463 13.015C9.89027 13.2305 9.65508 13.3752 9.39241 13.4173C9.12974 13.4593 8.86111 13.3954 8.64563 13.2394C8.43014 13.0834 8.28544 12.8482 8.24336 12.5855C8.20128 12.3229 8.26527 12.0542 8.42125 11.8388L9.37625 10.5263L7.83125 10.0263C7.70641 9.98521 7.59088 9.91999 7.49125 9.8343C7.39162 9.74861 7.30984 9.64414 7.25059 9.52685C7.13091 9.28997 7.11024 9.01525 7.19312 8.76313C7.23416 8.63829 7.29939 8.52275 7.38508 8.42312C7.47076 8.32349 7.57524 8.24172 7.69253 8.18246C7.92941 8.06279 8.20413 8.04212 8.45625 8.125L10 8.625V7C10 6.73478 10.1054 6.48043 10.2929 6.29289C10.4804 6.10536 10.7348 6 11 6C11.2652 6 11.5196 6.10536 11.7071 6.29289C11.8946 6.48043 12 6.73478 12 7V8.625L13.5438 8.125C13.6686 8.08396 13.8003 8.06791 13.9313 8.07777C14.0624 8.08763 14.1902 8.12321 14.3075 8.18246C14.4248 8.24172 14.5292 8.32349 14.6149 8.42312C14.7006 8.52275 14.7658 8.63829 14.8069 8.76313C14.8479 8.88796 14.864 9.01966 14.8541 9.1507C14.8442 9.28174 14.8087 9.40956 14.7494 9.52685C14.6902 9.64414 14.6084 9.74861 14.5088 9.8343C14.4091 9.91999 14.2936 9.98521 14.1688 10.0263L14.1625 10.0238ZM23.1625 10.0238L21.6175 10.5238L22.5725 11.8363C22.6497 11.9429 22.7052 12.0638 22.7357 12.1919C22.7662 12.3201 22.7712 12.453 22.7504 12.583C22.7296 12.7131 22.6833 12.8378 22.6143 12.95C22.5453 13.0621 22.4548 13.1596 22.3481 13.2369C22.2414 13.3141 22.1206 13.3696 21.9924 13.4001C21.8643 13.4306 21.7314 13.4356 21.6013 13.4148C21.4713 13.3939 21.3466 13.3477 21.2344 13.2787C21.1222 13.2096 21.0247 13.1192 20.9475 13.0125L20 11.7013L19.0462 13.015C18.8903 13.2305 18.6551 13.3752 18.3924 13.4173C18.1297 13.4593 17.8611 13.3954 17.6456 13.2394C17.4301 13.0834 17.2854 12.8482 17.2434 12.5855C17.2013 12.3229 17.2653 12.0542 17.4212 11.8388L18.3762 10.5263L16.8312 10.0263C16.7064 9.98521 16.5909 9.91999 16.4912 9.8343C16.3916 9.74861 16.3098 9.64414 16.2506 9.52685C16.1309 9.28997 16.1102 9.01525 16.1931 8.76313C16.2342 8.63829 16.2994 8.52275 16.3851 8.42312C16.4708 8.32349 16.5752 8.24172 16.6925 8.18246C16.9294 8.06279 17.2041 8.04212 17.4562 8.125L19 8.625V7C19 6.73478 19.1054 6.48043 19.2929 6.29289C19.4804 6.10536 19.7348 6 20 6C20.2652 6 20.5196 6.10536 20.7071 6.29289C20.8946 6.48043 21 6.73478 21 7V8.625L22.5438 8.125C22.6686 8.08396 22.8003 8.06791 22.9313 8.07777C23.0624 8.08763 23.1902 8.12321 23.3075 8.18246C23.4248 8.24172 23.5292 8.32349 23.6149 8.42312C23.7006 8.52275 23.7658 8.63829 23.8069 8.76313C23.8479 8.88796 23.864 9.01966 23.8541 9.1507C23.8442 9.28174 23.8087 9.40956 23.7494 9.52685C23.6902 9.64414 23.6084 9.74861 23.5088 9.8343C23.4091 9.91999 23.2936 9.98521 23.1688 10.0263L23.1625 10.0238Z" fill="#3E3D3A"/>
</svg>
