<svg width="19" height="19" viewBox="0 0 19 19" fill="none" xmlns="http://www.w3.org/2000/svg">
<g clip-path="url(#clip0_1_127)">
<path d="M16.7734 6.53719C16.7437 6.46297 16.7126 6.38875 16.6807 6.31453C16.2018 5.21018 15.4268 4.25978 14.4415 3.56844H16.0312C16.1887 3.56844 16.3397 3.50588 16.4511 3.39453C16.5624 3.28318 16.625 3.13216 16.625 2.97469C16.625 2.81721 16.5624 2.66619 16.4511 2.55484C16.3397 2.44349 16.1887 2.38094 16.0312 2.38094H8.3125C6.67085 2.38302 5.09003 3.00241 3.88393 4.11611C2.67783 5.22982 1.93467 6.75637 1.80203 8.39265C1.28915 8.52015 0.833447 8.81506 0.507054 9.23072C0.180661 9.64637 0.00222769 10.159 0 10.6875C0 10.845 0.0625556 10.996 0.173905 11.1073C0.285255 11.2187 0.436278 11.2812 0.59375 11.2812C0.751222 11.2812 0.902245 11.2187 1.01359 11.1073C1.12494 10.996 1.1875 10.845 1.1875 10.6875C1.18764 10.471 1.24697 10.2586 1.35908 10.0734C1.47118 9.88816 1.6318 9.7371 1.82355 9.63656C1.97135 10.9687 2.52681 12.2227 3.41406 13.2273L4.34625 15.8368C4.42866 16.0676 4.58047 16.2673 4.78086 16.4084C4.98124 16.5495 5.22038 16.6252 5.46547 16.625H6.40953C6.65449 16.625 6.89347 16.5493 7.0937 16.4082C7.29394 16.2671 7.44564 16.0675 7.52801 15.8368L7.67051 15.4375H11.9232L12.0657 15.8368C12.1481 16.0675 12.2998 16.2671 12.5 16.4082C12.7003 16.5493 12.9393 16.625 13.1842 16.625H14.1283C14.3732 16.625 14.6122 16.5493 14.8125 16.4082C15.0127 16.2671 15.1644 16.0675 15.2468 15.8368L16.4498 12.4687H16.625C17.0974 12.4687 17.5505 12.2811 17.8845 11.947C18.2186 11.613 18.4062 11.1599 18.4062 10.6875V8.3125C18.4063 7.86573 18.2385 7.43526 17.9361 7.10642C17.6336 6.77759 17.2186 6.57442 16.7734 6.53719ZM11.2812 5.34375H8.3125C8.15503 5.34375 8.00401 5.28119 7.89266 5.16984C7.78131 5.05849 7.71875 4.90747 7.71875 4.75C7.71875 4.59253 7.78131 4.4415 7.89266 4.33015C8.00401 4.2188 8.15503 4.15625 8.3125 4.15625H11.2812C11.4387 4.15625 11.5897 4.2188 11.7011 4.33015C11.8124 4.4415 11.875 4.59253 11.875 4.75C11.875 4.90747 11.8124 5.05849 11.7011 5.16984C11.5897 5.28119 11.4387 5.34375 11.2812 5.34375ZM13.3594 9.5C13.1832 9.5 13.011 9.44776 12.8646 9.3499C12.7181 9.25204 12.604 9.11294 12.5365 8.9502C12.4691 8.78746 12.4515 8.60838 12.4859 8.43562C12.5202 8.26286 12.6051 8.10416 12.7296 7.97961C12.8542 7.85505 13.0129 7.77023 13.1856 7.73586C13.3584 7.7015 13.5375 7.71913 13.7002 7.78654C13.8629 7.85395 14.002 7.96811 14.0999 8.11457C14.1978 8.26103 14.25 8.43322 14.25 8.60937C14.25 8.84558 14.1562 9.07212 13.9891 9.23914C13.8221 9.40616 13.5956 9.5 13.3594 9.5Z" fill="#3E3D3A"/>
</g>
<defs>
<clipPath id="clip0_1_127">
<rect width="19" height="19" fill="white"/>
</clipPath>
</defs>
</svg>
